<svg width="24" height="24" viewBox="0 0 24 24" fill="none" xmlns="http://www.w3.org/2000/svg">
<g clip-path="url(#clip0_7_2341)">
<path d="M23.4778 10.9278L13.0301 0.480664C12.4285 -0.121159 11.4527 -0.121159 10.8507 0.480664L8.68113 2.6502L11.4332 5.40228C12.0728 5.18614 12.8061 5.33119 13.3158 5.84109C13.8285 6.35385 13.9723 7.09369 13.7507 7.73562L16.4033 10.3877C17.0452 10.1666 17.785 10.3096 18.2978 10.8229C19.014 11.539 19.014 12.6994 18.2978 13.4161C17.5811 14.1325 16.4207 14.1325 15.7038 13.4161C15.1652 12.8768 15.0319 12.0854 15.3051 11.4216L12.8311 8.94786V15.4575C13.0056 15.544 13.1705 15.6591 13.3158 15.8044C14.0319 16.5203 14.0319 17.6807 13.3158 18.3979C12.5996 19.1138 11.4384 19.1138 10.7228 18.3979C10.0066 17.6807 10.0066 16.5203 10.7228 15.8044C10.8999 15.6273 11.1048 15.4937 11.3236 15.4041V8.83432C11.1048 8.74473 10.9004 8.61218 10.7228 8.43406C10.1803 7.89187 10.0499 7.09577 10.3283 6.42963L7.61524 3.71608L0.451172 10.8794C-0.150391 11.4817 -0.150391 12.4575 0.451172 13.0593L10.8994 23.5067C11.5009 24.1083 12.4764 24.1083 13.0788 23.5067L23.4778 13.108C24.0796 12.5059 24.0796 11.5296 23.4778 10.9278Z" fill="#F05133"/>
</g>
<defs>
<clipPath id="clip0_7_2341">
<rect width="24" height="24" fill="white"/>
</clipPath>
</defs>
</svg>
