<svg width="250" height="250" viewBox="0 0 250 250" fill="none" xmlns="http://www.w3.org/2000/svg">
<g clip-path="url(#clip0_4_2334)">
<path d="M151.036 153.087L202.639 103.738C191.92 61.9421 149.348 36.7489 107.551 47.4679C88.7294 52.2949 72.3816 63.9629 61.6987 80.194C62.4975 80.1739 151.036 153.087 151.036 153.087Z" fill="#0364B8"/>
<path d="M95.3302 89.4844L95.3277 89.4929C85.4675 83.3859 74.0958 80.1579 62.4973 80.1736C62.2293 80.1736 61.966 80.1906 61.6985 80.1938C27.1989 80.6212 -0.422279 108.935 0.0048886 143.435C0.159737 155.949 4.07002 168.129 11.2287 178.394L88.5382 168.712L147.81 120.919L95.3302 89.4844Z" fill="#0078D4"/>
<path d="M202.639 103.739C201.504 103.663 200.364 103.61 199.211 103.61C192.288 103.604 185.437 105.018 179.083 107.765L179.082 107.759L147.81 120.919L182.285 163.504L243.917 178.486C257.217 153.795 247.982 122.996 223.291 109.696C216.911 106.26 209.869 104.228 202.639 103.739V103.739H202.639Z" fill="#1490DF"/>
<path d="M11.2285 178.394C22.9016 195.177 42.054 205.18 62.4973 205.169H199.211C217.886 205.174 235.056 194.926 243.916 178.486L147.81 120.919L11.2285 178.394Z" fill="#28A8EA"/>
</g>
<defs>
<clipPath id="clip0_4_2334">
<rect width="250" height="250" fill="white"/>
</clipPath>
</defs>
</svg>
